<?xml version="1.0" encoding="UTF-8" standalone="no"?>
<svg
   xmlns:dc="http://purl.org/dc/elements/1.1/"
   xmlns:cc="http://creativecommons.org/ns#"
   xmlns:rdf="http://www.w3.org/1999/02/22-rdf-syntax-ns#"
   xmlns:svg="http://www.w3.org/2000/svg"
   xmlns="http://www.w3.org/2000/svg"
   xmlns:sodipodi="http://sodipodi.sourceforge.net/DTD/sodipodi-0.dtd"
   xmlns:inkscape="http://www.inkscape.org/namespaces/inkscape"
   inkscape:version="1.0 (4035a4fb49, 2020-05-01)"
   height="97.42231"
   width="155.30043"
   sodipodi:docname="maestro_logo.svg"
   id="svg12"
   version="1.1"
   viewBox="0 0 155.30044 97.42231">
  <metadata
     id="metadata18">
    <rdf:RDF>
      <cc:Work
         rdf:about="">
        <dc:format>image/svg+xml</dc:format>
        <dc:type
           rdf:resource="http://purl.org/dc/dcmitype/StillImage" />
        <dc:title>Mastercard Maestro logo</dc:title>
      </cc:Work>
    </rdf:RDF>
  </metadata>
  <defs
     id="defs16" />
  <sodipodi:namedview
     inkscape:current-layer="svg12"
     inkscape:window-maximized="1"
     inkscape:window-y="-8"
     inkscape:window-x="-8"
     inkscape:cy="66.147255"
     inkscape:cx="77.710432"
     inkscape:zoom="6.7598921"
     fit-margin-bottom="0"
     fit-margin-right="0"
     fit-margin-left="0"
     fit-margin-top="0"
     showgrid="false"
     id="namedview14"
     inkscape:window-height="1017"
     inkscape:window-width="1920"
     inkscape:pageshadow="2"
     inkscape:pageopacity="0"
     guidetolerance="10"
     gridtolerance="10"
     objecttolerance="10"
     borderopacity="1"
     bordercolor="#666666"
     pagecolor="#ffffff" />
  <title
     id="title2">Mastercard Maestro logo</title>
  <path
     id="path4"
     d="m 47.040436,120.08 v -8 a 4.73,4.73 0 0 0 -5,-5.05 4.93,4.93 0 0 0 -4.47,2.26 4.67,4.67 0 0 0 -4.2,-2.26 4.21,4.21 0 0 0 -3.72,1.89 v -1.57 h -2.77 v 12.72 h 2.83 v -7 a 3,3 0 0 1 3.11,-3.38 c 1.84,0 2.77,1.2 2.77,3.35 v 7.08 h 2.79 v -7 a 3,3 0 0 1 3.11,-3.38 c 1.89,0 2.79,1.2 2.79,3.35 v 7.08 z m 15.59,-6.36 v -6.36 h -2.77 v 1.54 a 4.82,4.82 0 0 0 -4,-1.86 6.69,6.69 0 0 0 0,13.36 4.82,4.82 0 0 0 4,-1.86 v 1.54 h 2.77 z m -10.3,0 a 3.81,3.81 0 1 1 0,0.31 q -0.01,-0.16 0,-0.31 z m 69.500004,-6.69 a 7.17,7.17 0 0 1 2.73,0.51 6.66,6.66 0 0 1 2.17,1.41 6.44,6.44 0 0 1 1.43,2.12 7.06,7.06 0 0 1 0,5.31 6.44,6.44 0 0 1 -1.43,2.12 6.65,6.65 0 0 1 -2.17,1.41 7.53,7.53 0 0 1 -5.46,0 6.58,6.58 0 0 1 -2.16,-1.41 6.5,6.5 0 0 1 -1.43,-2.12 7.07,7.07 0 0 1 0,-5.31 6.51,6.51 0 0 1 1.43,-2.12 6.59,6.59 0 0 1 2.16,-1.41 7.17,7.17 0 0 1 2.73,-0.52 z m 0,2.62 a 4.13,4.13 0 0 0 -1.58,0.3 3.74,3.74 0 0 0 -1.26,0.84 3.9,3.9 0 0 0 -0.84,1.29 4.63,4.63 0 0 0 0,3.31 3.89,3.89 0 0 0 0.84,1.29 3.74,3.74 0 0 0 1.26,0.84 4.33,4.33 0 0 0 3.16,0 3.81,3.81 0 0 0 1.27,-0.84 3.86,3.86 0 0 0 0.84,-1.29 4.63,4.63 0 0 0 0,-3.31 3.86,3.86 0 0 0 -0.84,-1.29 3.81,3.81 0 0 0 -1.27,-0.84 4.13,4.13 0 0 0 -1.58,-0.31 z m -44.120004,4.07 c 0,-4 -2.47,-6.68 -6,-6.68 a 6.6806755,6.6806755 0 0 0 0.19,13.36 7.73,7.73 0 0 0 5.21,-1.78 l -1.36,-2 a 6.06,6.06 0 0 1 -3.7,1.33 3.53,3.53 0 0 1 -3.8,-3.11 h 9.44 c -0.04,-0.4 0.02,-0.75 0.02,-1.12 z m -9.47,-1.12 a 3.27,3.27 0 0 1 3.38,-3.09 3.16,3.16 0 0 1 3.22,3.09 z m 21.12,-2 a 8.2,8.2 0 0 0 -4,-1.09 c -1.52,0 -2.42,0.56 -2.42,1.49 0,0.93 1,1.09 2.15,1.25 l 1.3,0.19 c 2.77,0.4 4.44,1.57 4.44,3.8 0,2.42 -2.13,4.15 -5.8,4.15 a 9.17,9.17 0 0 1 -5.51,-1.65 l 1.3,-2.15 a 6.78,6.78 0 0 0 4.23,1.33 c 1.89,0 2.9,-0.56 2.9,-1.54 0,-0.72 -0.72,-1.12 -2.23,-1.33 l -1.3,-0.19 c -2.85,-0.4 -4.39,-1.68 -4.39,-3.75 0,-2.53 2.07,-4.07 5.29,-4.07 a 9.51,9.51 0 0 1 5.19,1.33 z m 13.290004,-0.72 h -4.520004 v 5.75 c 0,1.28 0.45,2.13 1.84,2.13 a 5.11,5.11 0 0 0 2.450004,-0.72 l 0.8,2.37 a 6.5,6.5 0 0 1 -3.460004,1 c -3.27,0 -4.42,-1.76 -4.42,-4.71 v -5.8 h -2.63 v -2.53 h 2.58 v -3.86 h 2.79 v 3.86 h 4.520004 z m 9.58,-2.85 a 5.91,5.91 0 0 1 2,0.35 l -0.85,2.61 a 4.51,4.51 0 0 0 -1.73,-0.32 c -1.81,0 -2.71,1.17 -2.71,3.27 v 7.13 h -2.83 v -12.71 h 2.74 v 1.54 a 3.75,3.75 0 0 1 3.35,-1.86 z" />
  <rect
     id="rect6"
     style="fill:#7375cf"
     height="75.400002"
     width="41.959999"
     y="10.3"
     x="56.730438" />
  <path
     id="path8"
     style="fill:#eb001b"
     d="m 59.400436,48.01 a 47.87,47.87 0 0 1 18.31,-37.71 48,48 0 1 0 0,75.4 47.87,47.87 0 0 1 -18.31,-37.69 z" />
  <path
     id="path10"
     style="fill:#00a2e5"
     d="m 155.30044,48.01 a 48,48 0 0 1 -77.590004,37.7 48,48 0 0 0 0,-75.4 48,48 0 0 1 77.590004,37.7 z" />
</svg>
